<svg width="458" height="581" viewBox="0 0 458 581" fill="none" xmlns="http://www.w3.org/2000/svg">
<path fill-rule="evenodd" clip-rule="evenodd" d="M61.3913 211.452C108.551 129.77 226.449 129.77 273.609 211.452L412.235 451.56L343.777 491.083L205.151 250.976C188.417 221.992 146.582 221.992 129.848 250.976L-8.7775 491.083L-77.2347 451.56L61.3913 211.452Z" fill="#DFDFDF"/>
<path fill-rule="evenodd" clip-rule="evenodd" d="M129.952 501.952L129.952 201.571H205.048V501.952H129.952Z" fill="#DFDFDF"/>
<path fill-rule="evenodd" clip-rule="evenodd" d="M458 290.5C458 450.939 327.939 581 167.5 581C7.06128 581 -123 450.939 -123 290.5C-123 130.061 7.06128 0 167.5 0C327.939 0 458 130.061 458 290.5ZM167.5 501.952C284.282 501.952 378.952 407.282 378.952 290.5C378.952 173.718 284.282 79.0476 167.5 79.0476C50.7181 79.0476 -43.9524 173.718 -43.9524 290.5C-43.9524 407.282 50.7181 501.952 167.5 501.952Z" fill="#DFDFDF"/>
</svg>
