<svg width="322" height="478" viewBox="0 0 322 478" fill="none" xmlns="http://www.w3.org/2000/svg">
<path fill-rule="evenodd" clip-rule="evenodd" d="M151.702 173.966C190.501 106.764 287.499 106.764 326.298 173.966L440.348 371.507L384.027 404.024L269.977 206.483C256.209 182.637 221.791 182.637 208.023 206.483L93.9731 404.024L37.652 371.507L151.702 173.966Z" fill="#DFDFDF"/>
<path fill-rule="evenodd" clip-rule="evenodd" d="M208.109 412.966L208.109 165.837H269.891V412.966H208.109Z" fill="#DFDFDF"/>
<path fill-rule="evenodd" clip-rule="evenodd" d="M478 239C478 370.996 370.996 478 239 478C107.004 478 0 370.996 0 239C0 107.004 107.004 0 239 0C370.996 0 478 107.004 478 239ZM239 412.966C335.079 412.966 412.966 335.079 412.966 239C412.966 142.921 335.079 65.034 239 65.034C142.921 65.034 65.034 142.921 65.034 239C65.034 335.079 142.921 412.966 239 412.966Z" fill="#DFDFDF"/>
</svg>
