<svg width="65" height="65" viewBox="0 0 65 65" fill="none" xmlns="http://www.w3.org/2000/svg">
<path fill-rule="evenodd" clip-rule="evenodd" d="M20.629 23.6565C25.905 14.5181 39.095 14.5182 44.371 23.6565L59.8799 50.5187L52.2212 54.9405L36.7123 28.0782C34.8402 24.8356 30.1598 24.8356 28.2877 28.0782L12.7788 54.9405L5.12004 50.5187L20.629 23.6565Z" fill="white"/>
<path fill-rule="evenodd" clip-rule="evenodd" d="M28.2993 56.1565L28.2993 22.551H36.7007V56.1565H28.2993Z" fill="white"/>
<path fill-rule="evenodd" clip-rule="evenodd" d="M65 32.5C65 50.4493 50.4493 65 32.5 65C14.5507 65 0 50.4493 0 32.5C0 14.5507 14.5507 0 32.5 0C50.4493 0 65 14.5507 65 32.5ZM32.5 56.1565C45.5651 56.1565 56.1565 45.5651 56.1565 32.5C56.1565 19.4349 45.5651 8.84354 32.5 8.84354C19.4349 8.84354 8.84354 19.4349 8.84354 32.5C8.84354 45.5651 19.4349 56.1565 32.5 56.1565Z" fill="white"/>
</svg>
